<svg width="136" height="70" viewBox="0 0 136 70" fill="none" xmlns="http://www.w3.org/2000/svg">
<path fill-rule="evenodd" clip-rule="evenodd" d="M19.1476 60.5817C32.6699 60.6054 52.9621 60.5679 54.0572 60.7156C55.8407 58.1098 58.1621 56.1284 59.6094 52.9748C60.2934 51.485 60.9344 49.5461 61.0523 47.8585C61.167 46.1852 61.1791 45.0994 61.0567 43.4239C60.7795 39.6144 56.8719 32.4848 56.7473 32.4848C50.3562 19.9964 30.8534 0.486328 30.8534 0.486328C30.8534 0.486328 11.1091 19.7803 4.57912 32.1954C4.45456 32.1932 0.469217 39.281 0.147348 43.0855C0.0062545 44.761 0.00625447 45.8446 0.102705 47.5201C0.199156 49.2099 0.821951 51.1532 1.48939 52.6529C2.90143 55.8231 5.33308 58.0271 7.08849 60.6522C7.61979 60.5866 12.6104 60.5679 19.152 60.5795" fill="#1D3A1C"/>
<path d="M25.833 17.6865H27.0477V28.6918H25.833V17.6865Z" fill="#F4F5F5"/>
<path fill-rule="evenodd" clip-rule="evenodd" d="M26.479 17.148C26.2536 17.1668 25.967 17.1199 25.7272 17.0891C23.2107 16.7721 21.695 13.4818 23.4152 11.5081C22.5576 12.3233 22.2732 13.4421 22.2049 14.3047C22.0097 16.7159 23.9696 18.3887 25.9929 18.5535C26.1174 18.5628 26.237 18.57 26.3566 18.57H26.5286" fill="white"/>
<path fill-rule="evenodd" clip-rule="evenodd" d="M26.495 18.57C26.6146 18.57 26.765 18.565 26.8896 18.5535C28.9128 18.3865 30.8722 16.7159 30.6776 14.3047C30.6071 13.4443 30.3249 12.3255 29.4673 11.5081C31.1896 13.4818 29.6718 16.7721 27.1552 17.0891C26.9155 17.1199 26.6405 17.1624 26.415 17.1436" fill="white"/>
<path fill-rule="evenodd" clip-rule="evenodd" d="M25.1465 20.445C25.1465 20.1843 25.3741 19.9727 25.6541 19.9727H27.2282C27.5076 19.9727 27.7358 20.1843 27.7358 20.445C27.7358 20.7062 27.5076 20.9173 27.2282 20.9173H25.6541C25.3741 20.9173 25.1465 20.7062 25.1465 20.445Z" fill="#F4F5F5"/>
<path fill-rule="evenodd" clip-rule="evenodd" d="M25.1465 22.3768C25.1465 22.1161 25.3741 21.9044 25.6541 21.9044H27.2282C27.5076 21.9044 27.7358 22.1161 27.7358 22.3768C27.7358 22.638 27.5076 22.8491 27.2282 22.8491H25.6541C25.3741 22.8491 25.1465 22.638 25.1465 22.3768Z" fill="#F4F5F5"/>
<path fill-rule="evenodd" clip-rule="evenodd" d="M28.1425 16.469C28.1425 16.8449 27.3813 17.148 26.4416 17.148C25.5019 17.148 24.7402 16.8427 24.7402 16.469C24.7402 16.0953 25.5019 15.79 26.4416 15.79C27.3813 15.79 28.1425 16.0953 28.1425 16.469Z" fill="#1D3A1C"/>
<path fill-rule="evenodd" clip-rule="evenodd" d="M28.1006 60.6335C36.3811 60.6478 48.8039 60.6241 49.4736 60.7156C50.5659 59.12 51.9879 57.9075 52.8736 55.9757C53.2919 55.0641 53.6865 53.877 53.7571 52.843C53.8276 51.8184 53.8348 51.1532 53.7571 50.1286C53.5879 47.7973 51.1937 43.4311 51.1182 43.4311C47.2061 35.7862 35.265 23.8412 35.265 23.8412C35.265 23.8412 23.1756 35.655 19.1787 43.2547C19.1037 43.2547 16.6622 47.5928 16.4648 49.922C16.3778 50.9487 16.3778 51.6118 16.4367 52.6364C16.4952 53.6703 16.876 54.8619 17.2849 55.7784C18.1497 57.7196 19.6394 59.0682 20.7131 60.6759C21.0372 60.6357 24.0922 60.6241 28.0979 60.6313" fill="#42878F"/>
<path fill-rule="evenodd" clip-rule="evenodd" d="M135.818 69.8481H40.7065V68.3628L11.9322 67.6882V69.8481H6.90137V60.3375H135.818V69.8481Z" fill="#1D3A1C"/>
<path d="M40.7061 60.0157H49.7834V69.8503H40.7061V60.0157Z" fill="#42878F"/>
<path fill-rule="evenodd" clip-rule="evenodd" d="M19.3262 62.3305C27.5829 62.3442 39.9683 62.3211 40.6379 62.4126C41.7259 60.8214 43.1429 59.6139 44.0264 57.6865C44.4442 56.7771 44.8366 55.5927 44.9071 54.5631C44.9777 53.5413 44.9848 52.8783 44.9071 51.8559C44.7379 49.5317 42.3531 45.1771 42.2754 45.1793C38.3749 37.5559 26.4691 25.6461 26.4691 25.6461C26.4691 25.6461 14.4149 37.4241 10.4302 45.0035C10.3546 45.0035 7.92023 49.33 7.72568 51.6514C7.63859 52.6738 7.63859 53.3368 7.69702 54.3587C7.75599 55.3904 8.13683 56.5776 8.54303 57.4914C9.40557 59.4281 10.8904 60.7724 11.9618 62.3751C12.2864 62.3349 15.3315 62.3233 19.3262 62.3305Z" fill="white"/>
<path fill-rule="evenodd" clip-rule="evenodd" d="M19.3262 62.3305C27.5829 62.3442 39.9683 62.3211 40.6379 62.4126C41.7259 60.8214 43.1429 59.6139 44.0264 57.6865C44.4442 56.7771 44.8366 55.5927 44.9071 54.5631C44.9777 53.5413 44.9848 52.8783 44.9071 51.8559C44.7379 49.5317 42.3531 45.1771 42.2754 45.1793C38.3749 37.5559 26.4691 25.6461 26.4691 25.6461C26.4691 25.6461 14.4149 37.4241 10.4302 45.0035C10.3546 45.0035 7.92023 49.33 7.72568 51.6514C7.63859 52.6738 7.63859 53.3368 7.69702 54.3587C7.75599 55.3904 8.13683 56.5776 8.54303 57.4914C9.40557 59.4281 10.8904 60.7724 11.9618 62.3751C12.2864 62.3349 15.3315 62.3233 19.3262 62.3305Z" fill="white"/>
<path d="M11.9316 60.0157H40.7059V69.8503H11.9316V60.0157Z" fill="white"/>
<path d="M76.4667 31.7914H74.2323L70.9448 22.5107V31.7699H68.668V17.9775H71.9319L75.6703 28.118L79.493 17.9775H82.5431V31.7699H79.7278V22.5956L76.4617 31.7914H76.4667Z" fill="#1D3A1C"/>
<path d="M86.7118 22.0571C87.6702 21.1973 88.789 20.7674 90.0627 20.7674C91.3359 20.7674 92.4194 21.1973 93.3498 22.0571C94.4659 23.0751 95.0253 24.5059 95.0253 26.3533C95.0253 27.6127 94.7034 28.7668 94.0569 29.8123C93.1547 31.2745 91.8154 32.0025 90.0412 32.0025C88.1073 32.0025 86.7046 31.2651 85.8305 29.7891C85.2573 28.8164 84.9707 27.6694 84.9707 26.3511C84.9707 24.518 85.5511 23.0844 86.7118 22.0549V22.0571ZM88.0863 29.1052C88.5443 29.9209 89.1671 30.3298 89.9569 30.3298C90.7462 30.3298 91.4158 29.9137 91.8903 29.0842C92.3208 28.3534 92.5346 27.4506 92.5346 26.377C92.5346 25.3028 92.3417 24.4425 91.9537 23.7116C91.5101 22.88 90.9082 22.4661 90.1493 22.4661C89.2752 22.4661 88.5961 22.8893 88.11 23.7331C87.6801 24.4777 87.4663 25.3943 87.4663 26.4823C87.4663 27.514 87.673 28.3887 88.0885 29.103L88.0863 29.1052Z" fill="#1D3A1C"/>
<path d="M98.0517 28.7408C98.8106 29.7445 99.6473 30.2449 100.566 30.2449C101.024 30.2449 101.393 30.116 101.673 29.8569C101.952 29.5984 102.091 29.2699 102.091 28.8704C102.091 28.1533 101.275 27.5586 99.6423 27.0863C98.8272 26.8559 98.2325 26.5649 97.8588 26.205C97.3727 25.7327 97.128 25.089 97.128 24.2711C97.128 23.1103 97.5088 22.2076 98.2678 21.5638C98.9115 21.0044 99.7057 20.725 100.653 20.725H100.695C101.653 20.725 102.744 21.1124 103.961 21.8857L103.124 23.4768C102.293 22.8893 101.534 22.5956 100.848 22.5956C100.39 22.5956 100.035 22.7179 99.7856 22.9599C99.5343 23.204 99.4097 23.4813 99.4097 23.7987C99.4097 24.1867 99.5674 24.4425 99.8821 24.572C100.383 24.7715 100.871 24.9434 101.344 25.0867C103.407 25.7024 104.436 26.7479 104.436 28.2239C104.436 29.4695 104.027 30.4444 103.212 31.1449C102.481 31.7606 101.571 32.0687 100.483 32.0687C98.9374 32.0687 97.7271 31.4949 96.8535 30.3507L98.0561 28.7386L98.0517 28.7408Z" fill="#1D3A1C"/>
<path d="M108.9 27.9444V31.7887H106.602V16.7931H108.9V25.5591L112.723 20.2526L114.741 21.6487L110.789 25.86L115.451 31.1025L113.387 32.4352L109.541 26.9998L108.897 27.9444H108.9Z" fill="#1D3A1C"/>
<path d="M124.171 28.9547L125.136 30.2659C124.392 30.9829 123.741 31.4624 123.181 31.7066C122.681 31.9204 122.028 32.0284 121.226 32.0284C119.349 32.0284 117.984 31.2557 117.124 29.7092C116.579 28.7056 116.309 27.6248 116.309 26.4663C116.309 24.847 116.738 23.5165 117.596 22.471C118.513 21.3687 119.751 20.8165 121.314 20.8165C122.387 20.8165 123.289 21.1736 124.02 21.8907C124.822 22.6777 125.223 23.7304 125.223 25.0487V26.6614H118.865C118.893 29.0815 119.732 30.2989 121.379 30.3133C122.309 30.327 123.24 29.8762 124.171 28.9597V28.9547ZM121.165 22.4875C120.679 22.4875 120.249 22.6733 119.876 23.047C119.431 23.4769 119.145 24.0715 119.015 24.8305H122.883C122.956 23.2702 122.382 22.4897 121.165 22.4897V22.4875Z" fill="#1D3A1C"/>
<path d="M134.719 28.9547L135.684 30.2659C134.94 30.9829 134.289 31.4624 133.729 31.7066C133.229 31.9204 132.576 32.0284 131.774 32.0284C129.899 32.0284 128.532 31.2557 127.672 29.7092C127.127 28.7056 126.856 27.6248 126.856 26.4663C126.856 24.847 127.286 23.5165 128.146 22.471C129.063 21.3687 130.301 20.8165 131.861 20.8165C132.935 20.8165 133.837 21.1736 134.568 21.8907C135.369 22.6777 135.771 23.7304 135.771 25.0487V26.6614H129.413C129.441 29.0815 130.28 30.2989 131.927 30.3133C132.857 30.327 133.788 29.8762 134.719 28.9597V28.9547ZM131.711 22.4875C131.224 22.4875 130.794 22.6733 130.423 23.047C129.979 23.4769 129.693 24.0715 129.563 24.8305H133.428C133.502 23.2702 132.928 22.4897 131.711 22.4897V22.4875Z" fill="#1D3A1C"/>
<path d="M66.816 49.0925L65.82 52.5587L63.5664 52.2555L68.0731 38.1296H70.2821L74.8313 52.1475L72.317 52.5587L71.2995 49.0925H66.816ZM70.7142 47.0786L69.0883 41.4453L67.3991 47.0786H70.7142Z" fill="#42878F"/>
<path d="M76.7578 37.1778H79.0533V52.3001H76.7578V37.1778Z" fill="#42878F"/>
<path d="M87.7168 38.4113C87.832 38.4113 88.511 38.3975 89.7516 38.3694C90.661 38.3407 91.3847 38.3269 91.9182 38.3269C93.0739 38.3269 93.9877 38.6345 94.6579 39.2479C95.3298 39.8613 95.6654 40.731 95.6654 41.8587C95.6654 42.4231 95.4847 42.961 95.1253 43.4735C94.7632 43.9856 94.2958 44.3945 93.7177 44.6976C94.4694 44.7566 95.1297 45.1231 95.7007 45.8021C96.2717 46.4817 96.5561 47.2616 96.5561 48.1429C96.5561 49.8046 95.9642 50.968 94.7797 51.6305C93.9128 52.1078 92.6203 52.3448 90.903 52.3448C90.5128 52.3448 89.9533 52.331 89.2253 52.3024C88.4945 52.2742 87.994 52.2577 87.719 52.2577V38.414L87.7168 38.4113ZM90.273 44.0655H91.227C91.878 44.0655 92.3971 43.8638 92.7873 43.4592C93.1329 43.0833 93.3065 42.6132 93.3065 42.0516C93.2927 40.6368 92.6931 39.9297 91.5092 39.9297C91.2061 39.9297 90.7949 39.9434 90.273 39.9721V44.0655ZM90.273 50.5447H91.7253C92.5052 50.5447 93.0976 50.3144 93.5016 49.8514C93.8918 49.4331 94.0869 48.8549 94.0869 48.1169C94.0869 47.5107 93.8847 46.9678 93.4807 46.4933C93.0199 45.9741 92.4186 45.7128 91.6828 45.7128H90.2752V50.5447H90.273Z" fill="#42878F"/>
<path d="M104.548 50.7608C103.552 52.0466 102.657 52.6882 101.862 52.6882C100.967 52.6882 100.201 52.3332 99.5668 51.6255C98.9016 50.8594 98.5703 49.8845 98.5703 48.7001V41.5721H100.89V48.6367C100.89 49.9947 101.265 50.6743 102.015 50.6743C102.534 50.6743 103.098 50.3425 103.704 49.6778C104.269 49.0715 104.55 48.5799 104.55 48.204V41.5748H106.869V52.3001H104.769C104.724 51.9099 104.654 51.3979 104.552 50.7608H104.548Z" fill="#42878F"/>
<path d="M112.473 44.6508C112.128 45.0267 111.954 45.3232 111.954 45.5392V52.2979H109.635V41.5511H111.954V43.3065C112.142 42.8601 112.4 42.4324 112.734 42.0279C113.124 41.5649 113.486 41.3351 113.817 41.3351C114.367 41.3351 114.813 41.4078 115.161 41.5511L114.9 44.2374C114.656 44.0914 114.468 44.007 114.337 43.9762C114.264 43.9624 114.047 43.9624 113.686 43.9762C113.267 43.9905 112.863 44.2159 112.473 44.6486V44.6508Z" fill="#42878F"/>
<path d="M121.032 52.1684C120.555 52.4859 120.08 52.6457 119.603 52.6457C118.736 52.6457 118.015 52.3635 117.436 51.7997C116.802 51.1791 116.482 50.3612 116.482 49.351C116.482 48.1522 116.828 47.299 117.524 46.7942C117.972 46.4911 118.851 46.2089 120.167 45.9482C120.846 45.8187 121.459 45.725 122.009 45.666V44.5406C122.009 44.2231 121.88 43.9222 121.619 43.6405C121.358 43.3584 121.057 43.2173 120.71 43.2173C119.396 43.2173 118.327 43.7083 117.505 44.691L116.572 43.3699C116.962 42.719 117.603 42.1855 118.501 41.7672C119.281 41.3913 120.016 41.2034 120.71 41.2034C121.734 41.2034 122.599 41.5346 123.299 42.1998C124 42.8645 124.349 43.7083 124.349 44.7357V50.1733C124.349 50.2604 124.403 50.3612 124.512 50.4764C124.62 50.5916 124.733 50.6506 124.848 50.6506C125.311 50.6506 125.614 50.5778 125.757 50.4345L125.994 51.8207C125.113 52.2979 124.406 52.5355 123.872 52.5355C123.656 52.5355 123.375 52.406 123.027 52.1453C122.637 51.8421 122.39 51.5037 122.291 51.1273C121.685 51.6608 121.264 52.0086 121.034 52.1684H121.032ZM120.489 47.6402C119.796 47.7554 119.333 47.8937 119.103 48.0514C118.755 48.2674 118.583 48.6929 118.583 49.33C118.583 49.734 118.712 50.0912 118.973 50.4015C119.234 50.7117 119.537 50.8666 119.882 50.8666C120.764 50.8666 121.485 50.5211 122.049 49.8277L122.07 47.466C121.636 47.466 121.109 47.525 120.489 47.6402Z" fill="#42878F"/>
<path d="M133.551 41.5533H135.868V56.5677H133.551V51.3698C132.799 51.9033 132.353 52.2158 132.209 52.3002C131.645 52.6314 131.183 52.7984 130.823 52.7984C129.61 52.7984 128.663 52.2065 127.984 51.022C127.35 49.9385 127.03 48.5446 127.03 46.841C127.03 45.5977 127.32 44.4132 127.897 43.2878C128.577 41.9601 129.451 41.2949 130.517 41.2949C131.183 41.2949 131.737 41.4029 132.186 41.6195C132.474 41.7485 132.928 42.0587 133.551 42.5498V41.5533ZM129.521 47.0339C129.521 48.0723 129.709 48.9773 130.085 49.7412C130.461 50.5073 130.936 50.8903 131.514 50.8903C131.716 50.8903 132.033 50.688 132.468 50.2841C133.133 49.6778 133.492 49.3532 133.551 49.3085V44.9115C133.422 44.5218 133.147 44.1316 132.729 43.7414C132.31 43.3512 131.913 43.1561 131.537 43.1561C130.193 43.1704 129.524 44.4629 129.524 47.0339H129.521Z" fill="#42878F"/>
</svg>
